<svg xmlns="http://www.w3.org/2000/svg" height="288.085" width="288.104"><path d="M90.683 198.414q-.7.47-.12 1.51.58 1.05.12 2.21-1.16.23-1.51 1.27-.35 1.05-.58 2.21-.24 1.16-.7 1.98-.46.81-2.09.58-.47-6.04-1.51-11.62-1.05-5.57-1.51-11.15 1.86 0 2.32.47.93-1.39 1.63-4.07.7-2.67-1.63-3.83-.46 1.63-.23 3.25.23 1.63.46 3.02-1.85.47-3.01.93-1.17.47-3.02 1.4-.47-.93 0-2.68.46-1.74 1.16-2.67-1.16-.46-.58-2.2.58-1.74 1.51-2.21.23-.7-.24-.7h-.92q1.16-2.55 1.74-5.45.58-2.91.11-5.46-.23-.93-.46-.35-.23.58-.7-.12.23-1.16.81-3.36.59-2.21-.34-4.07 0-.93 1.39-.93 0-.46-.58-.35-.58.12-.81-.11 1.16-.7.46-1.28-.7-.58-.46-1.74.46-.23.46-.93 0-.7.93-.47.46-.92-.23-.92-.7 0-.7-.47.7-2.32.23-4.88-.46-2.55.7-4.41-.46-1.39-.46-3.37 0-1.97.92-2.9-.69-.93-.34-1.63.34-.69-.82-1.16.47-2.32.58-4.41.12-2.09 1.51-3.72-.23-.46-.69-1.27-.47-.82.69-.58.24-1.17-.58-1.28-.81-.12-.81-1.28 1.86-.23 1.16-1.74-.7-1.51 1.16-2.44-.46-.7-.93-1.28-.46-.58 1.16-.81-.46-1.39-.34-2.21.11-.81-.35-1.74.93 0 .93-.93t1.16-.93q-1.86-.93-.93-3.02t1.16-3.25q0-.46-1.16-.46 1.16-.47 1.04-1.86-.11-1.39 1.28-1.39-.69-2.56-4.29-2.09-3.6.46-8.02 1.51-4.41 1.04-8.59 1.51-4.18.46-6.27-2.09-.23-.93.23-1.17.46-.23.7-.93-1.16-.23-2.44-.58-1.28-.34-1.74-1.04.46-1.86.34-2.79-.11-.93-.81-2.55 1.86-1.16 3.37-2.09 1.51-.93 2.44-2.79-3.72.46-6.51 3.25-2.78 2.79-6.03 4.65 0-.7-.35-.93-.35-.23-.12-.93h1.63q-.47-1.86.69-2.56 1.17-.69 1.63-1.85 5.81-2.79 11.61-5.69 5.81-2.91 12.78-4.53 1.86-.7 4.53-1.86 2.67-1.16 4.06-1.63 2.32-.93 4.99-1.51 2.68-.58 5-1.51t3.95-2.44q1.62-1.51 1.85-4.76 2.33.47 3.6-.23 1.28-.7 2.68-1.16-.7-.47 0-1.86.69-1.39 2.09-2.9 1.39-1.51 3.01-2.56 1.63-1.04 2.33-1.04 1.39.23 1.97 1.62.58 1.4.7 3.14.11 1.74-.12 3.48-.23 1.75-.69 2.67 5.11 0 9.75-.81 4.65-.81 9.17-1.74 4.53-.93 9.41-1.74 4.88-.82 10.22-.82.93 0 .93-.69 0-.7.46-.7 3.02.23 6.04-.23 3.02-.47 5.93-.81 2.9-.35 5.57-.35 2.67 0 4.76 1.39-1.86 3.25-5.46 4.76-3.6 1.51-6.38 3.83-.7 2.56-2.44 4.07-1.75 1.51-3.95 2.79-2.21 1.27-4.53 2.32-2.32 1.04-4.18 2.67-5.34 1.16-9.99 3.14-4.64 1.97-9.06 4.06-4.41 2.09-9.05 4.18-4.65 2.09-9.99 3.25-.23.47 0 1.51.23 1.05-.93.58.93.7.35 2.44-.58 1.74-1.51 2.9.69 1.63 1.16 3.49-.93 0-1.16.93 0 .46.46.35.47-.12.7.11-.93 1.63-1.05 3.95-.11 2.32-.11 4.88 0 2.55-.23 4.99-.24 2.44-1.4 4.3-.23.46 0 .58.23.11.47.23.23.12.35.23.11.12-.12.82h-1.39q.69 1.85 1.04 3.94.35 2.09-1.04 3.26-.47 1.85.11 3.25.58 1.39-1.51 1.62.47.24 1.4 1.16-1.17 1.86-1.05 3.95.12 2.09-.35 4.88-.23-.23-2.55-.23.69.46 1.39 1.04.7.58 1.16 1.05-1.86 4.18-2.32 11.73-.47 7.55-.7 13.82-.46.46-1.27.35-.82-.12-1.75-.12 0 1.16 1.05 1.16 1.04 0 1.51.46-1.16 3.72-1.63 6.39-.46 2.67-.93 6.39-1.62 0-1.62-1.16-1.63.46-1.98 2.09-.35 1.62-.81 3.48 1.39 0 1.63-1.16.23-1.16.46-2.55 1.63.23 1.86 1.16.23.93-.35 2.09-.58 1.16-1.28 2.32-.69 1.16-.69 1.86-1.4-.23-2.09-.35-.7-.12-1.63.81.93 3.02-.23 5.93-1.16 2.9-1.4 5.45h-1.62q-.47-2.55-1.05-3.25-.58-.7-1.04-2.79-1.63.47-1.16-1.39m20.44-140.75q.92.93 1.97 1.63 1.04.7.35 3.25.69-.23 1.74.12 1.05.34 1.28-.58-.47-.93-.35-2.09.12-1.17.23-2.33.12-1.16-.11-2.44-.24-1.27-1.17-2.43-1.39.92-2.32 2.2-.93 1.28-1.62 2.67m58.99-1.86q-.7.7-1.16 1.63-.47.93-1.86.93 0 .93.35 1.28t.58 1.04q2.09-1.16 3.95-2.44 1.86-1.27 3.71-2.44-1.62-.69-2.55-.34-.93.34-3.02.34m-26.25 5.11q2.56 0 2.79-.69-2.32 0-2.79.69m3.72 4.65q.46-1.16 1.86-1.05 1.39.12 1.62-1.27-1.16.46-2.78.81-1.63.35-.7 1.51m11.38 2.55q1.63-.23 3.25-1.04 1.63-.81 1.16-1.98-1.16.7-2.32 1.28-1.16.58-2.09 1.74m-25.55-1.85q.93.23 1.4.81.46.58 1.16 1.04 0-1.16 1.27-.92 1.28.23 1.05-.93-1.16 0-2.67-.58-1.51-.59-2.21.58m7.43 1.85q1.17-.46 2.68-.81 1.51-.35 2.67-1.51-1.86.47-3.37.81-1.51.35-1.98 1.51m-23.92 4.65q4.65-.47 8.13-1.86 3.48-1.39 6.97-2.79-3.72-1.85-8.48-.11t-6.62 4.76m-2.32 1.16q.7-.7-.7-1.63-.46.47-.35 1.17.12.69 1.05.46m20.44 4.41q1.39-.23 3.37-.81 1.97-.58 3.71-1.28 1.74-.69 2.79-1.51 1.04-.81.81-1.74-2.32 1.86-5.46 2.67-3.13.82-5.22 2.67m-51.33 2.56q3.25-.47 5.81-1.86 2.55-1.39 5.34-2.55-3.49.92-6.04 1.62-2.56.7-5.11 2.79m-16.96 1.16q1.86-1.16 3.6-2.44 1.75-1.28 4.07-1.97-3.02 0-5.11 1.62-2.09 1.63-2.56 2.79m19.98.46q1.86-.46 3.48-.81 1.63-.35 2.79-1.51-2.09.23-3.72.7-1.62.46-2.55 1.62m29.26 3.26q.47 0 .35.46-.11.46-.35.7 1.16-.7 3.25-1.05 2.09-.35 3.95-.81.93-.23 2.44-.93 1.51-.7 2.79-1.39 1.28-.7 2.09-1.28.81-.58.58-1.05-1.39 1.17-3.48 1.75-2.09.58-4.18.92-2.1.35-4.07.93-1.97.58-3.37 1.75m-41.57-1.17q2.09-.23 3.71-.58 1.63-.34 2.1-2.2-3.72.69-5.81 2.78m6.97 7.9q1.39.23 3.83 0 2.44-.23 3.37-1.39-2.09 0-4.07.23-1.97.23-3.13 1.16m-4.88 1.39l2.32-.46q1.16-.23 2.09-.93-1.39.23-2.79.23-1.39 0-1.62 1.16m-4.65 1.63q.7-.93.7-.58 0 .35-.93.12-1.16 0-3.25-.93t-3.72-1.16q0 .92-.81.92t-.58 1.17q1.63 1.62 3.95.81 2.32-.81 4.64-.35m16.26 24.85q1.63.23 2.44-.23t1.97-.23q0-1.16-1.74-.7-1.74.47-2.67 1.16m10.69 18.35q.46-1.16-.93-1.04-1.4.11-1.4.58.7 0 .93.34.23.35 1.4.12m-2.79 13.24q-.23-.47.11-1.16.35-.7.7-1.51t.47-1.63q.11-.81-.82-1.27.24.92-.46 2.67-.7 1.74 0 2.9m9.75 0q1.4.46 1.05-.81-.35-1.28-1.05-1.51-.69 1.39 0 2.32m-10.68 4.88q.93.23 1.28-.35t.11-1.4q-.23-.81-.58-1.62t-.35-1.05q-.69 1.17-.23 2.21.47 1.05-.23 2.21m8.13 22.06q-1.39 0-1.39-1.62.69 0 .92-.93-1.16-.47-.92-1.4 1.62-.93 1.27-3.02-.35-2.09 1.51-3.25-1.39-.46-.58-2.32.81-1.86 1.28-3.02-.93 0-.7-.7.7 0 .7-.93-1.63.7-2.09 2.33-.47 1.62-.7 3.36-.23 1.75-.46 3.37-.23 1.63-1.63 2.32.93 2.1-.7 3.26 1.17.46.7 1.62-.46 1.16-.46 2.32.93-.92 2.2-.92 1.28 0 1.05-.47m-13.7-2.79q.46 0 .46-.34 0-.35.23-.35.23-1.16-.35-1.16t-.81-.7q1.16 0 1.16-.7-1.16-1.39-1.16-3.71 0-2.33.47-3.49-.47 0-.7-.35-.23-.34-.7-.11 0 3.25-.35 5.69-.34 2.44 1.75 5.22m-.47 11.85q-.46-.47-.35-1.39.12-.93-1.04-.7-.47.7-.12 1.39.35.7 1.51.7m-.46 4.88q2.09 0 1.62-1.4-.46-1.39 0-2.32-.46-.23-.81-.58-.35-.35-1.28-.35-.46 1.63.23 2.21.7.58.24 2.44m-3.26-1.63h1.4q.46-1.16-.47-1.16-.93 0-.93-.93.24 0 .35-.23.12-.23-.35-.23-.23.93-.11 1.16.11.23.11 1.39m9.06 3.72q.47-.7.47-1.63 0-.93.23-1.86-.46.24-.7-.11-.23-.35-.93-.12.24 1.16 0 2.32-.23 1.16.93 1.4m-6.27 1.16q1.63.46 1.63-.7t-1.16-1.39q.46.93-.12 1.16-.58.23-.35.93zm137.03-133.55q5.35 7.9 8.6 16.37 3.25 8.48 2.78 19.17 1.63 2.55 1.63 6.38t-.93 6.62q.47 2.79.47 6.51 0 3.71-.47 7.54-.46 3.84-1.16 7.55-.7 3.72-1.63 6.51-.69 6.03-2.09 11.03-1.39 4.99-3.13 9.75t-3.6 9.76q-1.86 4.99-3.49 10.8-.46-.24-.58.11-.11.35-.58.35-3.94 8.83-8.59 18.35-4.65 9.52-11.61 15.79-2.33 1.86-6.51 3.84-4.18 1.97-8.59 1.51-2.55-.24-4.3-1.51-1.74-1.28-4.06-1.75-1.16-.23-1.98 0-.81.24-1.97 0-2.79-.69-5.34-2.55-2.56-1.86-5.11-3.72-1.63-1.16-3.48-3.25-1.86-2.09-3.6-4.76-1.75-2.67-2.79-5.69-1.05-3.02-1.05-6.27-1.86-2.32-2.44-4.99-.58-2.68-.81-5.46l-.46-5.58q-.24-2.78-1.4-5.34.7.47.93 0-.69-4.64-1.39-9.87-.7-5.23-.81-10.45-.12-5.23.46-10.1.58-4.88 2.44-9.06.23-.93-.23-1.28-.47-.35 0-1.28 1.39-2.32 2.32-5.11.93-2.78 1.74-5.57.81-2.79 1.86-5.34 1.04-2.56 2.67-4.65v-3.02q.93.23.81-.69-.11-.93 1.05-.7.93-4.65 3.48-9.29 2.56-4.65 5.58-8.36 2.55-4.65 6.5-9.87 3.95-5.23 9.29-8.71 2.55-3.72 8.13-5.93 5.57-2.2 11.84-2.78 6.28-.58 12.2.69 5.92 1.28 9.4 4.3m11.38 49.47q.24-.93-.23-1.28-.46-.34-.46-1.04h.69q-.69-3.02-.92-6.39-.24-3.37-.7-6.62 0 .47.23.35t.23-.81q-.46-.93-1.04-2.67-.58-1.75.58-2.67-1.86-3.02-2.21-6.97-.35-3.95-2.44-6.51v-2.55q-1.62-2.09-3.02-4.41-1.39-2.33-3.13-4.42t-3.95-3.36q-2.21-1.28-5.46-1.28 6.04 3.71 8.6 10.22 2.55 6.5 4.41 14.63 1.16 0 1.39.46-.69 6.04.93 10.34 1.63 4.3 3.02 10.1-.46 3.95.47 8.36.92 4.42.46 8.37 1.63-.7 1.86-2.09.23-1.4.11-3.14-.11-1.74-.23-3.48-.11-1.75.81-3.14m-27.4-47.15q-.47-.46-1.05-1.51-.58-1.04-1.04-.35.23 0 .58 1.4.35 1.39 1.51.46m-6.74-1.39q-2.55.46-5.34 1.74t-2.55 3.37q2.55-2.56 6.03-2.21 3.49.35 6.51-.11-1.16-.47-2.32-1.05-1.17-.58-2.33-1.74m9.76 2.79q-.7.23-1.28-.58-.58-.82-.81-.12l.11.46q.12.47.47.82t.69.35q.35 0 .82-.93m-14.87 9.05q1.86-.92 4.42-.58 2.55.35 3.71-.81-.93-.23-2.32-.46-1.39-.24-2.79-.12-1.39.12-2.32.58-.93.47-.7 1.39m-26.01 109.4q1.16.46 2.44 1.28 1.28.81.12 2.67 2.55 0 4.99.58 2.44.58 4.88.93 2.43.34 4.87.11 2.44-.23 5-1.62 4.41-5.58 7.89-12.08 3.49-6.5 6.74-12.78.23-.92-.23-1.04-.47-.12-.24-1.28.7 0 .82-.46.11-.47.23-.93.12-.47.46-.81.35-.35 1.28-.12-.46-2.09-.23-4.76t.7-5.46q.46-2.79 1.04-5.46.58-2.67 1.28-4.76-.23-6.73-.12-13.82.12-7.08.58-13.82-.93-.46-1.16-.93 1.16-8.13-.69-16.14-1.86-8.01-3.26-15.44-.46-.47-.81-.58-.35-.12-.81-.59-5.34-.92-9.52.59-4.19 1.5-7.55 4.29-3.37 2.79-5.93 6.39-2.55 3.6-4.87 6.62-.47.7-1.05 1.04-.58.35-.81.82-3.25 5.34-4.65 12.19-1.39 6.85-3.94 12.19-1.17 6.04-2.09 11.04-.93 4.99-2.1 9.87 1.4 2.09.82 4.06-.58 1.98-.82 3.14-.46 2.78.47 4.87.93 2.09 1.16 4.65.23 1.16-.35 2.67t-.35 2.67q0 1.86.93 3.49.93 1.62 1.4 3.01.69 1.17.69 2.91 0 1.74.24 2.9.69.7 1.39.93.7.23 1.16.23-.46 2.09.23 3.25.7 1.17-.23 3.49m42.5-80.83q1.4 0 1.16.93.7 9.06.24 18.93-.47 9.87-.24 18.7.47-4.42 1.63-8.95 1.16-4.52 1.16-9.17 0-5.34.12-11.03.11-5.69-.23-11.15-.35-5.46-1.51-10.34-1.17-4.87-3.49-8.82-.23 2.09.23 4.99.47 2.91 1.05 5.81.58 2.9.7 5.57.11 2.67-.82 4.53m12.08 55.74q.93-1.39 1.86-3.48t1.51-4.18q.58-2.09.93-3.83.35-1.74.35-2.44 1.16-5.58 1.27-10.69.12-5.11.58-11.61h-1.39q-.46 9.06-1.86 18.35-1.39 9.29-3.25 17.88m8.59-32.05q.24-.46.47-2.09.23-1.62-.93-1.39.93.93.23 1.86-.69.93.23 1.62m-14.86 2.09q.93 0 1.39.47-.23-.93.35-2.09.58-1.16-.35-.47.24 1.16-.69 1.05-.93-.12-.7 1.04m-56.67 13.71q-.47-1.17.46-.82.93.35.7-.35-.93.24-1.04-.11-.12-.35-1.05-.12 0 1.4.93 1.4m-8.83 2.78q0-1.16.12-1.86.12-.69-.58-1.85-.47.46-.58 2.09-.12 1.62 1.04 1.62m61.78 24.85q3.49-4.18 6.04-11.14 2.56-6.97 1.63-12.55-1.4 6.51-3.37 12.43-1.97 5.92-4.3 11.26m-56.2-4.41q.46-7.9-1.86-13.24-.47 4.65.23 7.2.7 2.56 1.63 6.04m2.32 15.33q0 .93.7 1.97.69 1.05 1.85-.11-1.62-1.86-1.97-4.65-.35-2.78-2.9-3.94 0 2.78.46 3.83.47 1.04 1.86 2.9m-9.29-2.32v-2.32q0-1.17-1.16-1.4.23 1.16.11 2.32-.11 1.17 1.05 1.4m50.63 19.04q1.63-.46 2.21-1.97.58-1.51 2.2-1.98.7-1.39 1.98-2.9t2.32-3.02q1.05-1.51 1.63-3.02.58-1.51.11-2.9-1.85 3.95-4.87 7.9-3.02 3.94-5.58 7.89m-22.76-1.62q1.16.23 2.32.69 1.16.47 2.33.93-.47 1.16 0 1.4.46.23.69.93 3.95.46 6.16-.82 2.2-1.27 3.48-3.48 1.28-2.21 2.21-4.76.93-2.56 2.32-4.65-2.55.93-4.41 2.67-1.86 1.75-3.95 3.37-2.09 1.63-4.76 2.79-2.67 1.16-6.39.93m-5.11-6.04q.47 1.86 3.37 2.32 2.9.47 4.76-.46-2.32-.24-3.83-1.05-1.51-.81-3.37-1.28 0 1.4-.93.47m24.85 13.47q.23 2.32-.93 3.37-1.16 1.04-.69 2.2 4.87-2.55 8.47-7.31 3.6-4.76 5-9.41-2.56 3.25-5.23 6.27-2.67 3.02-6.62 4.88m-24.85-6.74q2.56 0 2.32 1.86.93-.23 1.16.23.24.47.7-.69-.46-.7-1.51-1.16-1.04-.47-.11-1.4-.47.24-1.28-.35-.81-.58-1.28.35.47.24.12.47-.35.23-.12.69m-12.08 5.11q1.86 0 2.09-.93-1.39 0-1.51-1.16-.11-1.16-1.97-.69 0 .93 1.16 1.27 1.16.35.23 1.51m-.46 1.4q-.7-.93-1.28-1.63-.58-.7-1.51-1.62 0 1.62.93 2.67.93 1.04 1.86.58m1.62 1.62q-.46-.23-.46-.93h-1.63q-.69 1.17.59 1.28 1.27.12 1.5-.35m3.72 2.33q.93.46 1.28-.12.35-.58.58.12-.7.69.23 2.09.93 1.39 1.63.69-.47-1.86-1.63-3.02t-2.09-3.02q-1.39 0-1.62.47l1.04 1.04q.58.58.58 1.75m20.44 3.94h5.81q.69-1.62 1.51-3.02.81-1.39 1.74-2.78-3.25.46-5.23 1.97-1.97 1.51-3.83 3.83m-13.94-1.16q.93-.69 2.79.58 1.86 1.28.47 2.21 3.25.23 4.64-2.32-1.16.23-2.32-.12t-2.21-.7q-1.04-.34-1.97-.34-.93 0-1.4.69m18.82 5.81q.69-.47 1.86-1.05 1.16-.58 2.2-1.16 1.05-.58 1.51-1.16.47-.58 0-1.28-1.62 1.17-3.37 1.86-1.74.7-2.2 2.79m-11.62-.47q.93.7 2.44 1.05 1.51.35 3.02.23 1.51-.11 2.67-.81 1.16-.7 1.4-2.09-2.79-.7-5.58-1.05-2.78-.34-3.95 2.67z" xmlns:name="main_text"/><path d="M81.542 232.281h-3.22l-1.12 1.3-.37-1.49-1.81.44.61 2.47v7.82h2.23v-7.28l1.06-1.22h1.79l.72.78v7.72h2.23v-7.72l.72-.78h2.25l.6.6v7.9h2.23v-8.7l-1.86-1.84h-4.04l-1.01 1.11zm12.5 0l-2.48.78.6 1.94 2.18-.68h2.83l.6.6v1.61h-4.5l-1.87 1.85v2.6l1.87 1.84h4.04l1.12-1.3.37 1.49 1.81-.44-.61-2.47v-5.98l-1.86-1.84zm3.73 7.28l-1.07 1.22h-2.46l-.6-.6v-1.01l.6-.6h3.53zm7.67-8.31l-.8-2.4-2.09.69.66 1.98v11.3h2.23v-3.61l.97-.91 3.32 4.81 1.76-1.22-3.47-5.05 3.47-3.3-1.47-1.55-4.58 4.35zm12.98 9.53h-3.03l-.6-.6v-1.44h4.68l1.67-1.65v-2.97l-1.86-1.84h-4.86l-1.86 1.84v6.86l1.86 1.84h4.29l2.49-.78-.6-1.94zm-3.03-6.46h2.92l.6.6v1.28l-.51.51h-3.61v-1.79zm16.46.17l-.79-2.4-2.1.7.66 1.98v8.05h2.23zm-1.65-3.41h1.07l.72-.72v-1.07l-.72-.72h-1.07l-.71.72v1.07zm4.99 3.43v6.47l1.85 1.84h2.52l2.48-.78-.6-1.92-2.11.66h-1.3l-.61-.6v-5.67h2.82v-2.04h-2.82v-2.85h-2.23v2.85h-1.74v2.04zm16.83.7l1.24-.89h2.27l.61.6v7.9h2.23v-8.7l-1.87-1.84h-3.43l-1.05.76v-1.79l-.8-2.4-2.09.69.66 1.98v11.3h2.23zm10.93-2.93l-2.49.78.61 1.94 2.17-.68h2.83l.6.6v1.61h-4.5l-1.86 1.85v2.6l1.86 1.84h4.04l1.12-1.3.37 1.49 1.81-.44-.6-2.47v-5.98l-1.87-1.84zm3.72 7.28l-1.06 1.22h-2.47l-.6-.6v-1.01l.6-.6h3.53zm8.49-5.24h2.44l.6.6v5.26l-.6.6h-2.27l-1.24-.89v-4.35zm-.61-2.04l-1.12 1.3-.37-1.49-1.8.44.6 2.47v11.08h2.23v-4.02l1.05.76h3.43l1.87-1.84v-6.86l-1.87-1.84zm11.73 2.04h2.44l.61.6v5.26l-.61.6h-2.27l-1.24-.89v-4.35zm-.6-2.04l-1.13 1.3-.37-1.49-1.8.44.6 2.47v11.08h2.23v-4.02l1.05.76h3.43l1.87-1.84v-6.86l-1.87-1.84zm13.87 8.5h-3.02l-.61-.6v-1.44h4.68l1.67-1.65v-2.97l-1.86-1.84h-4.85l-1.87 1.84v6.86l1.87 1.84h4.29l2.48-.78-.6-1.94zm-3.02-6.46h2.91l.6.6v1.28l-.51.51h-3.61v-1.79zm7.95.68v7.82h2.24v-7.28l1.06-1.22h2.47l.6.6v7.9h2.23v-8.7l-1.86-1.84h-4.04l-1.12 1.3-.37-1.49-1.81.44z" xmlns:name="slogan_text"/><g transform="matrix(5.8 0 0 5.8 -.017 .02)" xmlns:name="outlineContainer_mainfill" fill="#545454"><path d="M26.94 1.59a.1.1 0 01-.09-.06A2.6 2.6 0 0025.18.18a.1.1 0 11.05-.19 2.8 2.8 0 011.79 1.45.1.1 0 010 .13zM28.16 1.74a.1.1 0 01-.09-.06 2.6 2.6 0 00-1.6-1.43.1.1 0 01.06-.18 2.8 2.8 0 011.71 1.55.1.1 0 01-.05.13zM29.38 1.94a.1.1 0 01-.09-.07A2.6 2.6 0 0027.77.35a.1.1 0 01.07-.18 2.8 2.8 0 011.63 1.63.1.1 0 01-.06.12zM30.57 2.21a.1.1 0 01-.09-.07A2.6 2.6 0 0029.04.55a.1.1 0 01.08-.18 2.8 2.8 0 011.54 1.72.1.1 0 01-.07.12zM31.75 2.54a.1.1 0 01-.09-.08A2.6 2.6 0 0030.31.79a.1.1 0 11.09-.17 2.8 2.8 0 011.45 1.8.1.1 0 01-.07.12zM32.91 2.94a.1.1 0 01-.1-.08 2.6 2.6 0 00-1.26-1.73.1.1 0 11.1-.17A2.8 2.8 0 0133 2.83a.1.1 0 01-.08.11zM34.05 3.39a.1.1 0 01-.1-.09 2.6 2.6 0 00-1.17-1.8.1.1 0 11.11-.16 2.8 2.8 0 011.25 1.96.1.1 0 01-.09.11zM35.16 3.9a.1.1 0 01-.1-.09 2.6 2.6 0 00-1.07-1.86.1.1 0 01.12-.15 2.8 2.8 0 011.15 2 .1.1 0 01-.09.1zM36.25 4.47a.1.1 0 01-.1-.1 2.6 2.6 0 00-1-1.91.1.1 0 11.12-.15 2.8 2.8 0 011 2.06.1.1 0 01-.1.1zM37.3 5.1a.1.1 0 01-.09-.1 2.6 2.6 0 00-.87-2 .1.1 0 11.13-.14 2.8 2.8 0 01.94 2.11.1.1 0 01-.11.13zM38.32 5.78a.1.1 0 01-.09-.11 2.6 2.6 0 00-.77-2 .1.1 0 11.14-.13 2.8 2.8 0 01.82 2.16.1.1 0 01-.1.08zM39.31 6.51a.1.1 0 01-.08-.11 2.6 2.6 0 00-.66-2 .1.1 0 11.15-.13 2.8 2.8 0 01.71 2.2.1.1 0 01-.12.04zM40.25 7.3a.1.1 0 01-.08-.11 2.6 2.6 0 00-.56-2.07.1.1 0 01.15-.12 2.8 2.8 0 01.59 2.23.1.1 0 01-.1.07zM41.15 8.13a.1.1 0 01-.07-.12 2.6 2.6 0 00-.45-2.1.1.1 0 11.16-.11 2.8 2.8 0 01.48 2.26.1.1 0 01-.12.07zM42.01 9.01a.1.1 0 01-.06-.12 2.6 2.6 0 00-.34-2.12.1.1 0 11.16-.1 2.8 2.8 0 01.36 2.28.1.1 0 01-.12.06zM42.82 9.93a.1.1 0 01-.06-.12 2.6 2.6 0 00-.23-2.13.1.1 0 01.17-.09 2.8 2.8 0 01.24 2.3.1.1 0 01-.12.04zM43.58 10.89a.1.1 0 010-.13 2.6 2.6 0 00-.11-2.14.1.1 0 01.17-.08 2.8 2.8 0 01.12 2.3.1.1 0 01-.18.05zM44.28 11.89a.1.1 0 010-.13 2.6 2.6 0 000-2.15.1.1 0 01.18-.08 2.8 2.8 0 010 2.31.1.1 0 01-.18.05zM44.94 12.93a.1.1 0 010-.13 2.6 2.6 0 00.11-2.14.1.1 0 01.18-.07 2.8 2.8 0 01-.12 2.3.1.1 0 01-.17.04zM45.54 14h-.05a.1.1 0 010-.13 2.6 2.6 0 00.22-2.13.1.1 0 11.18-.06 2.8 2.8 0 01-.24 2.29.1.1 0 01-.11.03zM46.08 15.09h-.06a.1.1 0 010-.13 2.6 2.6 0 00.33-2.12.1.1 0 01.07-.12.1.1 0 01.12.07 2.8 2.8 0 01-.36 2.28.1.1 0 01-.1.02zM46.57 16.22h-.06a.1.1 0 010-.14 2.6 2.6 0 00.44-2.1.1.1 0 11.19 0 2.8 2.8 0 01-.48 2.26.1.1 0 01-.09-.02zM46.99 17.37h-.06a.1.1 0 010-.14 2.6 2.6 0 00.55-2.07.1.1 0 11.19 0 2.8 2.8 0 01-.6 2.23.1.1 0 01-.08-.02zM47.38 18.54a.1.1 0 01-.07-.16 2.6 2.6 0 00.66-2 .1.1 0 01.09-.1.1.1 0 01.1.09 2.8 2.8 0 01-.72 2.19.1.1 0 01-.06-.02zM47.66 19.73a.1.1 0 01-.07-.17 2.6 2.6 0 00.77-2 .1.1 0 01.09-.1.1.1 0 01.1.09 2.8 2.8 0 01-.83 2.15zM47.9 20.93a.1.1 0 01-.06-.17 2.6 2.6 0 00.87-2 .1.1 0 01.1-.09.1.1 0 01.09.1 2.8 2.8 0 01-.94 2.11zM48.08 22.15a.1.1 0 01-.06-.17 2.6 2.6 0 001-1.91.1.1 0 01.1-.09.1.1 0 01.09.1 2.8 2.8 0 01-1.05 2.05zM48.19 23.37a.1.1 0 01-.05-.18 2.6 2.6 0 001.07-1.89.1.1 0 11.19 0 2.8 2.8 0 01-1.16 2zM48.24 24.59a.1.1 0 010-.18 2.6 2.6 0 001.17-1.8.1.1 0 01.11-.08.1.1 0 01.08.11 2.8 2.8 0 01-1.26 1.93zM48.22 25.82a.1.1 0 010-.18 2.6 2.6 0 001.26-1.74.1.1 0 01.19 0 2.8 2.8 0 01-1.36 1.86zM48.15 27.04a.1.1 0 010-.18 2.6 2.6 0 001.35-1.67.1.1 0 01.19.05 2.8 2.8 0 01-1.45 1.79zM48 28.3a.1.1 0 010-.19 2.6 2.6 0 001.43-1.6.1.1 0 11.18.06 2.8 2.8 0 01-1.57 1.73zM47.8 29.47a.1.1 0 010-.19 2.6 2.6 0 001.52-1.52.1.1 0 01.18.07 2.8 2.8 0 01-1.63 1.63zM47.53 30.67a.1.1 0 010-.19 2.6 2.6 0 001.59-1.44.1.1 0 01.18.08 2.8 2.8 0 01-1.72 1.54zM47.19 31.85a.1.1 0 010-.19 2.6 2.6 0 001.65-1.36.1.1 0 11.17.09 2.8 2.8 0 01-1.8 1.45zM46.8 33.01a.1.1 0 010-.19 2.6 2.6 0 001.73-1.26.1.1 0 11.17.1 2.8 2.8 0 01-1.87 1.35zM46.38 34.15a.1.1 0 010-.19 2.6 2.6 0 001.8-1.17.1.1 0 01.16.11 2.8 2.8 0 01-1.96 1.25zM45.83 35.3a.1.1 0 010-.19 2.6 2.6 0 001.86-1.07.1.1 0 11.15.12 2.8 2.8 0 01-2 1.15zM45.26 36.3a.1.1 0 010-.19 2.6 2.6 0 001.91-1 .1.1 0 11.15.12 2.8 2.8 0 01-2.06 1zM44.73 37.4h-.1a.1.1 0 010-.19 2.6 2.6 0 002-.87.1.1 0 11.14.13 2.83 2.83 0 01-2.04.93zM44.16 38.43h-.21a.1.1 0 01-.09-.11.1.1 0 01.11-.09 2.6 2.6 0 002-.77.1.1 0 11.13.14 2.86 2.86 0 01-1.94.83zM43.55 39.43h-.33a.1.1 0 01-.08-.11.1.1 0 01.11-.08 2.6 2.6 0 002-.66.1.1 0 11.13.15 2.9 2.9 0 01-1.83.7zM42.88 40.39a2.29 2.29 0 01-.46 0 .1.1 0 010-.19 2.6 2.6 0 002.07-.56.1.1 0 01.12.15 2.93 2.93 0 01-1.73.6zM42.17 41.3a2.33 2.33 0 01-.58-.07.1.1 0 110-.19 2.6 2.6 0 002.1-.45.1.1 0 01.11.16 3 3 0 01-1.63.55zM41.38 42.21a2.37 2.37 0 01-.71-.11.1.1 0 11.06-.18 2.6 2.6 0 002.12-.34.1.1 0 11.1.16 3 3 0 01-1.57.47zM40.62 43.06a2.41 2.41 0 01-.85-.15.1.1 0 11.07-.18 2.6 2.6 0 002.13-.23.1.1 0 01.09.17 3 3 0 01-1.44.39zM39.79 43.86a2.45 2.45 0 01-1-.2.1.1 0 11.08-.18 2.6 2.6 0 002.14-.11.1.1 0 01.08.17 3 3 0 01-1.3.32zM38.92 44.62a2.49 2.49 0 01-1.11-.25.1.1 0 11.09-.17 2.6 2.6 0 002.15 0 .1.1 0 11.08.18 3.08 3.08 0 01-1.21.24zM38.01 45.3a2.54 2.54 0 01-1.25-.31.1.1 0 01.1-.17 2.6 2.6 0 002.14.11.1.1 0 01.07.18 3.1 3.1 0 01-1.06.19zM37.08 46a2.58 2.58 0 01-1.39-.38.1.1 0 11.1-.16 2.6 2.6 0 002.13.22.1.1 0 01.06.18 3.12 3.12 0 01-.9.14zM36.11 46.62a2.62 2.62 0 01-1.52-.46.1.1 0 11.11-.16 2.6 2.6 0 002.12.33.1.1 0 110 .19 3.13 3.13 0 01-.71.1zM35.11 47.19a2.66 2.66 0 01-1.66-.54.1.1 0 01.12-.15 2.6 2.6 0 002.1.44.1.1 0 010 .19 3.16 3.16 0 01-.56.06zM34.09 47.7a2.7 2.7 0 01-1.79-.63.1.1 0 01.13-.14 2.6 2.6 0 002.07.55.1.1 0 110 .19 3.16 3.16 0 01-.41.03zM33.05 48.16a2.74 2.74 0 01-1.92-.73.1.1 0 11.14-.14 2.6 2.6 0 002 .66.1.1 0 01.1.09.1.1 0 01-.09.1h-.23zM31.98 48.56a2.78 2.78 0 01-2-.83.1.1 0 11.14-.13 2.61 2.61 0 002 .77.1.1 0 01.1.09.1.1 0 01-.09.1h-.15zM30.84 48.91a2.8 2.8 0 01-2.11-.94.1.1 0 01.15-.12 2.6 2.6 0 002 .87.1.1 0 01-.04.19zM29.58 49.19a2.8 2.8 0 01-2.05-1.05.1.1 0 11.16-.11 2.6 2.6 0 001.91 1 .1.1 0 01-.02.16zM28.3 49.4a2.8 2.8 0 01-2-1.16.1.1 0 11.16-.11 2.6 2.6 0 001.86 1.07.1.1 0 01-.02.2zM27.01 49.55a2.8 2.8 0 01-1.95-1.25.1.1 0 01.17-.1 2.6 2.6 0 001.8 1.17.1.1 0 01-.02.18zM25.72 49.63a2.8 2.8 0 01-1.89-1.33.1.1 0 11.17-.09 2.6 2.6 0 001.74 1.26.1.1 0 01-.02.16zM24.38 49.65a2.8 2.8 0 01-1.79-1.45.1.1 0 01.18-.08 2.6 2.6 0 001.67 1.35.1.1 0 01-.06.18zM23.13 49.59a2.8 2.8 0 01-1.75-1.55.1.1 0 01.18-.07 2.6 2.6 0 001.6 1.43.1.1 0 01-.03.19zM21.84 49.47a2.8 2.8 0 01-1.63-1.63.1.1 0 11.18-.06 2.6 2.6 0 001.49 1.52.1.1 0 01-.04.17zM20.56 49.3a2.8 2.8 0 01-1.54-1.72.1.1 0 01.19-.05 2.6 2.6 0 001.44 1.59.1.1 0 01-.09.18zM19.29 49.02a2.8 2.8 0 01-1.45-1.8.1.1 0 11.19 0 2.6 2.6 0 001.35 1.62.1.1 0 01-.09.18zM18.04 48.7a2.8 2.8 0 01-1.35-1.87.1.1 0 01.19 0 2.6 2.6 0 001.26 1.73.1.1 0 01-.1.14zM16.8 48.3h-.05a2.8 2.8 0 01-1.25-1.94.1.1 0 11.19 0 2.6 2.6 0 001.17 1.8.1.1 0 01-.06.14zM15.59 47.86h-.06a2.8 2.8 0 01-1.15-2 .1.1 0 01.19 0 2.6 2.6 0 001.07 1.86.1.1 0 01-.05.14zM14.38 47.3a2.8 2.8 0 01-1-2.06.1.1 0 01.1-.1.1.1 0 01.1.1 2.6 2.6 0 001 1.91.125.125 0 01-.2.15zM13.24 46.77a.1.1 0 01-.07 0 2.8 2.8 0 01-.94-2.11.1.1 0 11.19 0 2.6 2.6 0 00.87 2 .1.1 0 01-.05.11zM12.11 46.14a.1.1 0 01-.07 0 2.8 2.8 0 01-.82-2.16.1.1 0 01.11-.09.1.1 0 01.09.11 2.6 2.6 0 00.77 2 .1.1 0 01-.08.14zM11.02 45.44a.1.1 0 01-.07 0 2.8 2.8 0 01-.71-2.2.1.1 0 01.11-.08.1.1 0 01.08.11 2.6 2.6 0 00.66 2 .1.1 0 010 .14zM9.97 44.69a.1.1 0 01-.08 0 2.8 2.8 0 01-.59-2.23.1.1 0 11.19 0 2.6 2.6 0 00.56 2.07.1.1 0 010 .14zM8.95 43.89a.1.1 0 01-.08 0 2.8 2.8 0 01-.48-2.26.1.1 0 01.19 0 2.6 2.6 0 00.45 2.1.1.1 0 010 .13zM7.98 43.03a.1.1 0 01-.08 0 2.8 2.8 0 01-.36-2.28.1.1 0 11.18.06 2.6 2.6 0 00.34 2.12.1.1 0 010 .13h-.08zM7.06 42.12a.1.1 0 01-.08-.05 2.8 2.8 0 01-.24-2.3.1.1 0 01.18.07 2.6 2.6 0 00.23 2.13.1.1 0 010 .13zM6.18 41.17a.1.1 0 01-.09-.05 2.8 2.8 0 01-.12-2.3.1.1 0 01.18.08 2.6 2.6 0 00.11 2.14.1.1 0 010 .13zM5.38 40.17a.1.1 0 01-.09-.06 2.8 2.8 0 010-2.31.1.1 0 11.17.09 2.6 2.6 0 000 2.15.1.1 0 01-.05.13zM4.58 39.13a.1.1 0 01-.09-.06 2.8 2.8 0 01.12-2.3.1.1 0 01.17.1 2.6 2.6 0 00-.11 2.14.1.1 0 01-.06.12zM3.87 38.06a.1.1 0 01-.09-.07 2.8 2.8 0 01.24-2.29.1.1 0 01.16.1 2.6 2.6 0 00-.22 2.13.1.1 0 01-.06.12zM3.21 36.94a.1.1 0 01-.09-.07 2.8 2.8 0 01.36-2.28.1.1 0 11.16.11 2.6 2.6 0 00-.33 2.12.1.1 0 01-.07.12zM2.61 35.79a.1.1 0 01-.09-.08A2.8 2.8 0 013 33.45a.1.1 0 01.15.12 2.6 2.6 0 00-.44 2.1.1.1 0 01-.08.11zM2.07 34.62a.1.1 0 01-.1-.08 2.8 2.8 0 01.6-2.23.1.1 0 01.14.13 2.6 2.6 0 00-.55 2.07.1.1 0 01-.08.11zM1.59 33.41a.1.1 0 01-.1-.09 2.8 2.8 0 01.72-2.19.12.12 0 11.17.17 2.6 2.6 0 00-.66 2 .1.1 0 01-.09.1zM1.18 32.18a.1.1 0 01-.1-.09 2.8 2.8 0 01.83-2.15.1.1 0 01.13.14 2.6 2.6 0 00-.77 2 .1.1 0 01-.09.1zM.83 30.94a.1.1 0 01-.09-.1 2.8 2.8 0 01.94-2.11.1.1 0 11.12.15 2.6 2.6 0 00-.87 2 .1.1 0 01-.1.06zM.55 29.67a.1.1 0 01-.09-.1 2.8 2.8 0 011.05-2.05.1.1 0 01.11.16 2.6 2.6 0 00-1 1.91.1.1 0 01-.07.08zM.38 28.4a.1.1 0 01-.08-.11 2.8 2.8 0 011.08-1.99.1.1 0 11.11.16A2.6 2.6 0 00.43 28.3a.1.1 0 01-.05.1zM.19 27.11A.1.1 0 01.11 27a2.8 2.8 0 011.27-1.94.1.1 0 01.1.17 2.6 2.6 0 00-1.17 1.8.1.1 0 01-.12.08zM.11 25.82a.1.1 0 01-.07-.12 2.8 2.8 0 011.34-1.86.1.1 0 11.09.17 2.6 2.6 0 00-1.26 1.74.1.1 0 01-.1.07zM.09 24.52a.1.1 0 01-.07-.12 2.8 2.8 0 011.45-1.79.1.1 0 01.08.18A2.61 2.61 0 00.2 24.46a.1.1 0 01-.11.06zM.15 23.23a.1.1 0 01-.06-.12 2.8 2.8 0 011.55-1.71.1.1 0 01.07.18 2.6 2.6 0 00-1.43 1.6.1.1 0 01-.13.05zM.27 21.94a.1.1 0 01-.05-.13 2.8 2.8 0 011.63-1.63.1.1 0 01.06.18 2.6 2.6 0 00-1.53 1.52.1.1 0 01-.11.06zM.46 20.66a.1.1 0 010-.13 2.8 2.8 0 011.72-1.54.1.1 0 11.05.19 2.6 2.6 0 00-1.59 1.44.1.1 0 01-.18.04zM.71 19.39a.1.1 0 010-.13 2.8 2.8 0 011.67-1.46.1.1 0 110 .19A2.6 2.6 0 00.8 19.3a.1.1 0 01-.09.09zM1.04 18.14a.1.1 0 010-.13 2.8 2.8 0 011.87-1.35.1.1 0 110 .19 2.6 2.6 0 00-1.73 1.26.1.1 0 01-.14.03zM1.38 16.9h-.05a.1.1 0 010-.13 2.8 2.8 0 011.94-1.25.1.1 0 010 .19 2.6 2.6 0 00-1.8 1.17.1.1 0 01-.09.02zM1.88 15.69h-.06a.1.1 0 010-.14 2.8 2.8 0 012-1.15.09.09 0 01.1.09.1.1 0 01-.09.1 2.6 2.6 0 00-1.86 1.07.1.1 0 01-.09.03zM2.38 14.5h-.06a.1.1 0 010-.14 2.8 2.8 0 012.06-1.06.1.1 0 010 .19 2.6 2.6 0 00-1.91 1 .1.1 0 01-.09.01zM2.97 13.3a.1.1 0 01-.07-.16 2.79 2.79 0 012.11-.94.1.1 0 010 .19 2.6 2.6 0 00-2 .87.1.1 0 01-.04.04zM3.6 12.21a.1.1 0 01-.07-.17 2.8 2.8 0 012.16-.82.1.1 0 110 .19 2.61 2.61 0 00-2 .77.1.1 0 01-.09.03zM4.3 11.12a.1.1 0 01-.06-.17 2.8 2.8 0 012.2-.71.1.1 0 110 .19 2.6 2.6 0 00-2 .66zM5.05 10.06a.1.1 0 01-.06-.17 2.8 2.8 0 012.23-.59.1.1 0 01.08.11.1.1 0 01-.11.08 2.6 2.6 0 00-2.07.56zM5.85 9.05a.1.1 0 01-.06-.18 2.8 2.8 0 012.26-.48.1.1 0 010 .19 2.6 2.6 0 00-2.1.45zM6.71 8.08a.1.1 0 01-.05-.18 2.8 2.8 0 012.28-.36.1.1 0 01-.06.18 2.61 2.61 0 00-2.12.34h-.05zM7.61 7.15a.1.1 0 010-.18 2.8 2.8 0 012.3-.24.1.1 0 01-.07.18 2.6 2.6 0 00-2.13.23zM8.57 6.3a.1.1 0 010-.18 2.8 2.8 0 012.3-.12.1.1 0 11-.08.18 2.6 2.6 0 00-2.14.11zM11.79 5.45a2.6 2.6 0 00-2.15 0 .1.1 0 01-.08-.18 2.8 2.8 0 012.31 0 .1.1 0 01-.08.18zM12.83 4.8a2.61 2.61 0 00-2.14-.11.1.1 0 01-.07-.18 2.8 2.8 0 012.3.12.1.1 0 01-.09.17zM13.9 4.2h-.05a2.6 2.6 0 00-2.13-.22.1.1 0 11-.06-.18 2.8 2.8 0 012.29.24.1.1 0 01-.05.16zM15 3.66h-.06a2.6 2.6 0 00-2.12-.33.1.1 0 01-.12-.07.1.1 0 01.07-.12 2.8 2.8 0 012.28.36.1.1 0 01-.05.16zM16.12 3.17h-.06a2.6 2.6 0 00-2.1-.44.1.1 0 010-.19 2.8 2.8 0 012.26.48.1.1 0 01-.1.15zM17.27 2.75h-.06a2.6 2.6 0 00-2.07-.55.1.1 0 010-.19 2.8 2.8 0 012.23.6.1.1 0 01-.1.14zM18.44 2.38a.1.1 0 01-.07 0 2.6 2.6 0 00-2-.66.1.1 0 110-.19 2.8 2.8 0 012.19.72.1.1 0 01-.12.13zM19.63 2.08a.1.1 0 01-.07 0 2.61 2.61 0 00-2-.77.1.1 0 010-.19 2.8 2.8 0 012.15.83.1.1 0 010 .14zM20.83 1.84a.1.1 0 01-.07 0 2.6 2.6 0 00-2-.87.1.1 0 01-.09-.1.1.1 0 01.1-.09 2.8 2.8 0 012.11.94.1.1 0 010 .14zM22.05 1.66a.1.1 0 01-.08 0 2.6 2.6 0 00-1.91-1 .1.1 0 01-.09-.1.1.1 0 01.1-.09 2.8 2.8 0 012.05 1.05.1.1 0 010 .14zM23.27 1.55a.1.1 0 01-.08 0A2.6 2.6 0 0021.33.48a.1.1 0 010-.19 2.8 2.8 0 012 1.16.1.1 0 010 .13zM24.49 1.5a.1.1 0 01-.08 0 2.6 2.6 0 00-1.8-1.17.1.1 0 01-.08-.11.1.1 0 01.11-.08 2.8 2.8 0 011.93 1.26.1.1 0 010 .13zM25.72 1.51a.1.1 0 01-.09-.05A2.6 2.6 0 0023.89.2a.1.1 0 110-.19 2.8 2.8 0 011.86 1.36.1.1 0 010 .13z"/><path d="M24.82 47.18a22.36 22.36 0 1122.36-22.36 22.38 22.38 0 01-22.36 22.36zm0-44.56a22.2 22.2 0 1022.2 22.2 22.22 22.22 0 00-22.2-22.2z"/><path d="M24.82 46.46a21.64 21.64 0 1121.64-21.64 21.66 21.66 0 01-21.64 21.64zm0-42.63a21 21 0 1021 21 21 21 0 00-21-21z"/></g></svg>